<svg viewBox="0 0 1250 1250" version="1.1" xmlns="http://www.w3.org/2000/svg" xmlns:xlink="http://www.w3.org/1999/xlink" id="el_3I7TdaujF"><style>@-webkit-keyframes kf_el_ie4W1gkwln_an_74qoO8Zul{0%{-webkit-transform: translate(474.45026856660843px, 474.05000001192093px) rotate(0deg) translate(-474.45026856660843px, -474.05000001192093px);transform: translate(474.45026856660843px, 474.05000001192093px) rotate(0deg) translate(-474.45026856660843px, -474.05000001192093px);}100%{-webkit-transform: translate(474.45026856660843px, 474.05000001192093px) rotate(360deg) translate(-474.45026856660843px, -474.05000001192093px);transform: translate(474.45026856660843px, 474.05000001192093px) rotate(360deg) translate(-474.45026856660843px, -474.05000001192093px);}}@keyframes kf_el_ie4W1gkwln_an_74qoO8Zul{0%{-webkit-transform: translate(474.45026856660843px, 474.05000001192093px) rotate(0deg) translate(-474.45026856660843px, -474.05000001192093px);transform: translate(474.45026856660843px, 474.05000001192093px) rotate(0deg) translate(-474.45026856660843px, -474.05000001192093px);}100%{-webkit-transform: translate(474.45026856660843px, 474.05000001192093px) rotate(360deg) translate(-474.45026856660843px, -474.05000001192093px);transform: translate(474.45026856660843px, 474.05000001192093px) rotate(360deg) translate(-474.45026856660843px, -474.05000001192093px);}}#el_3I7TdaujF *{-webkit-animation-duration: 4s;animation-duration: 4s;-webkit-animation-iteration-count: infinite;animation-iteration-count: infinite;-webkit-animation-timing-function: cubic-bezier(0, 0, 1, 1);animation-timing-function: cubic-bezier(0, 0, 1, 1);}#el_4YDiCwOvuk{stroke: none;stroke-width: 1;fill: none;}#el_5DfZFLV9mh{-webkit-transform: translate(151px, 151px);transform: translate(151px, 151px);}#el_3v1YQ3I2FO{fill: #989898;}#el_doAE5fccnK{fill: #49ACB5;}#el_mX994QARq2{stroke: #979797;stroke-width: 3;}#el_ie4W1gkwln{-webkit-transform: translate(39px, 38px);transform: translate(39px, 38px);fill: #49ACB5;}#el_ie4W1gkwln_an_74qoO8Zul{-webkit-animation-fill-mode: backwards;animation-fill-mode: backwards;-webkit-transform: translate(474.45026856660843px, 474.05000001192093px) rotate(0deg) translate(-474.45026856660843px, -474.05000001192093px);transform: translate(474.45026856660843px, 474.05000001192093px) rotate(0deg) translate(-474.45026856660843px, -474.05000001192093px);-webkit-animation-name: kf_el_ie4W1gkwln_an_74qoO8Zul;animation-name: kf_el_ie4W1gkwln_an_74qoO8Zul;-webkit-animation-timing-function: cubic-bezier(0, 0, 1, 1);animation-timing-function: cubic-bezier(0, 0, 1, 1);}</style>
    <!-- Generator: Sketch 50.2 (55047) - http://www.bohemiancoding.com/sketch -->
    <title>Custom Preset</title>
    <desc>Created with Sketch.</desc>
    <defs/>
    <g id="el_4YDiCwOvuk" fill-rule="evenodd">
        <g id="el_5DfZFLV9mh">
            <g id="el_957EbA36F6">
                <path d="M0,449.010022 C1.6,445.510022 1.1,441.710022 1.3,438.110022 C4.4,395.710022 13.1,354.510022 27.5,314.510022 C45.4,264.410022 71.1,218.510022 104.6,177.010022 C136.4,137.410022 173.6,103.810022 216.2,76.2100223 C265.4,44.3100223 318.8,22.1100223 376.3,10.1100223 C401,4.91002228 426,1.81002228 451.2,0.61002228 C472.6,-0.48997772 493.9,-0.0899777196 515.2,1.71002228 C563.3,5.91002228 609.8,17.0100223 654.4,35.5100223 C705.8,56.8100223 752.2,86.1100223 793.3,123.710022 C856.5,181.510022 901,251.310022 926.7,333.010022 C935.7,361.710022 941.7,391.010022 945,420.910022 C947.4,442.910022 948.5,465.010022 947.9,487.210022 C946.2,545.310022 934.5,601.310022 912.2,655.010022 C891,706.210022 861.8,752.310022 824.3,793.210022 C766.6,856.210022 696.8,900.710022 615.1,926.510022 C586.4,935.510022 557.1,941.710022 527.2,944.810022 C517.9,945.810022 508.7,946.710022 499.4,947.110022 C498.6,947.110022 497.8,947.010022 497.3,947.810022 C481.5,947.810022 465.7,947.810022 449.9,947.810022 C449.2,946.710022 448,947.110022 447.1,947.010022 C423.2,945.710022 399.5,942.610022 376.1,937.610022 C318.7,925.510022 265.3,903.410022 216.1,871.510022 C173.5,843.910022 136.4,810.310022 104.6,770.710022 C71.4,729.410022 45.8,683.810022 27.9,634.010022 C13.4,593.810022 4.6,552.310022 1.5,509.710022 C1.2,505.510022 1.8,501.210022 0.2,497.210022 C0,481.110022 0,465.010022 0,449.010022 Z M473.9,932.310022 C727.2,932.210022 932.1,727.610022 932.5,474.510022 C932.8,220.910022 727.8,15.6100223 474.4,15.5100223 C220.9,15.3100223 15.9,220.210022 15.6,473.410022 C15.4,727.010022 220.5,932.010022 473.9,932.310022 Z" id="el_3v1YQ3I2FO" fill-rule="nonzero"/>
                <path d="M473.7,205.1 C621.6,205.1 741.8,325.3 741.8,473.1 C741.8,621.2 621.4,741.5 473.5,741.3 C325.4,741 205.6,621 205.6,473.1 C205.6,325.3 325.8,205.1 473.7,205.1 Z" id="el_doAE5fccnK" fill-rule="nonzero"/>
                <circle id="el_mX994QARq2" cx="474" cy="474" r="350"/>
            </g>
            <g id="el_ie4W1gkwln_an_74qoO8Zul" data-animator-group="true" data-animator-type="1"><g id="el_ie4W1gkwln" fill-rule="nonzero">
                <path d="M839.6,0.8 C856.7,0.8 870.7,14.9 870.6,32 C870.5,49.1 856.5,63 839.3,62.9 C822.3,62.8 808.5,48.9 808.5,31.9 C808.4,14.8 822.4,0.8 839.6,0.8 Z" id="el_0EyU8QQHli"/>
                <path d="M63,840.3 C63,857.5 49.1,871.3 32,871.3 C14.3,871.3 0.3,857.4 0.3,840 C0.3,822.6 14.4,808.8 32.2,808.8 C49,808.7 64,823.6 63,840.3 Z" id="el_AeHl1l2USs"/>
            </g></g>
        </g>
    </g>
</svg>